<?xml version="1.0" standalone="no"?>
<!DOCTYPE svg PUBLIC "-//W3C//DTD SVG 20010904//EN"
 "http://www.w3.org/TR/2001/REC-SVG-20010904/DTD/svg10.dtd">
<svg version="1.0" xmlns="http://www.w3.org/2000/svg"
 width="277.000000pt" height="182.000000pt" viewBox="0 0 277.000000 182.000000"
 preserveAspectRatio="xMidYMid meet">

<g transform="translate(0.000000,182.000000) scale(0.100000,-0.100000)"
fill="#000000" stroke="none">
<path d="M1245 1520 c-168 -25 -356 -125 -401 -212 -19 -36 -8 -31 48 20 116
107 244 164 403 178 41 4 78 11 81 15 6 10 -60 10 -131 -1z"/>
<path d="M1393 1523 c4 -6 41 -14 83 -18 152 -14 281 -68 385 -160 63 -56 87
-69 70 -37 -37 68 -189 160 -319 192 -96 23 -228 37 -219 23z"/>
<path d="M1340 1333 c-19 -15 -58 -48 -86 -73 -29 -26 -67 -50 -90 -56 l-39
-10 32 -11 c27 -10 31 -9 26 3 -3 8 1 14 9 14 8 0 38 22 68 50 51 47 81 61 48
23 -8 -10 -19 -25 -23 -33 -8 -13 -7 -13 8 -1 9 7 17 11 17 7 0 -3 8 1 18 9 9
8 25 21 35 28 13 9 18 23 15 45 l-3 32 -35 -27z"/>
<path d="M1390 1326 c0 -30 6 -38 42 -60 50 -30 61 -26 28 9 -42 45 -5 26 40
-21 25 -25 37 -42 28 -38 -11 3 -18 1 -18 -5 0 -6 15 -11 34 -11 18 0 49 -3
67 -6 l34 -7 -24 26 c-22 24 -49 29 -36 6 17 -27 -23 -1 -87 56 -101 91 -108
94 -108 51z"/>
<path d="M1532 1265 c21 -22 40 -36 43 -33 3 3 -13 20 -37 38 l-43 33 37 -38z"/>
<path d="M1230 1200 c0 -6 7 -10 15 -10 8 0 15 2 15 4 0 2 -7 6 -15 10 -8 3
-15 1 -15 -4z"/>
<path d="M2000 1153 c0 -79 -34 -146 -109 -215 -72 -67 -135 -101 -235 -127
-181 -48 -330 -49 -501 -6 -230 58 -365 176 -381 334 -6 50 -9 59 -20 50 -22
-18 -16 -89 11 -147 48 -103 172 -191 340 -241 238 -70 509 -48 710 57 88 46
190 141 181 169 -4 13 2 30 15 47 27 34 30 96 6 120 -16 17 -17 14 -17 -41z"/>
<path d="M1519 1123 c-13 -16 -12 -17 4 -4 16 13 21 21 13 21 -2 0 -10 -8 -17
-17z"/>
<path d="M1060 999 c-36 -22 -72 -48 -80 -56 -16 -17 -3 -11 66 34 l26 16 -21
-36 c-26 -46 -18 -46 38 -2 24 19 49 35 55 35 6 0 31 -10 56 -22 25 -12 52
-22 60 -23 9 -1 40 -19 69 -40 l53 -38 120 63 c135 71 129 71 215 0 44 -36 51
-46 40 -58 -8 -10 3 -7 31 7 23 12 42 24 42 28 0 3 -8 16 -17 27 -17 20 -17
20 0 7 28 -22 29 -8 2 31 -14 20 -33 37 -42 37 -60 3 -95 9 -105 19 -22 22
-44 13 -156 -63 -61 -41 -117 -75 -124 -75 -10 0 -12 15 -10 55 2 30 1 55 -3
55 -10 0 -35 -28 -35 -39 0 -6 -6 -11 -12 -11 -7 0 1 -11 17 -25 42 -34 22
-31 -31 6 -24 16 -49 27 -56 23 -7 -4 -8 -3 -4 4 7 12 -93 82 -116 81 -7 0
-42 -18 -78 -40z m712 -50 c23 -17 27 -24 16 -30 -19 -13 -26 -11 -48 11 -40
40 -18 54 32 19z"/>
<path d="M1400 955 c0 -51 3 -53 31 -26 17 16 18 19 5 24 -9 4 -16 16 -16 27
0 11 -4 20 -10 20 -5 0 -10 -20 -10 -45z"/>
<path d="M946 958 c-10 -32 0 -50 38 -70 32 -17 38 -17 27 -4 -11 13 -11 16 0
17 8 0 -3 7 -24 16 -29 12 -36 19 -32 34 4 11 4 19 0 19 -3 0 -7 -6 -9 -12z"/>
<path d="M900 946 c0 -2 7 -9 15 -16 13 -11 14 -10 9 4 -5 14 -24 23 -24 12z"/>
<path d="M1857 943 c-4 -3 -7 -11 -7 -17 0 -6 5 -5 12 2 6 6 9 14 7 17 -3 3
-9 2 -12 -2z"/>
<path d="M20 391 l0 -131 48 0 47 0 -3 80 c-2 44 -1 92 2 106 6 24 9 25 69 22
l62 -3 3 -102 3 -103 44 0 44 0 3 103 3 102 60 0 60 0 3 -102 3 -103 49 0 50
0 0 110 c0 151 -2 153 -153 146 -134 -6 -113 -6 -269 0 l-128 5 0 -130z"/>
<path d="M660 500 c-18 -18 -20 -33 -20 -130 l0 -110 54 0 55 0 3 48 3 47 133
3 132 3 0 -51 0 -50 55 0 55 0 0 113 c0 98 -3 116 -18 130 -16 15 -47 17 -225
17 -194 0 -208 -1 -227 -20z m358 -62 l3 -28 -130 0 c-76 0 -132 4 -136 10 -3
6 -3 19 0 30 6 19 14 20 133 18 l127 -3 3 -27z"/>
<path d="M1204 512 c3 -5 35 -31 70 -58 36 -27 66 -52 66 -56 0 -4 -34 -36
-75 -72 l-76 -66 58 0 c56 0 60 2 121 55 l64 55 61 -55 c60 -53 64 -55 120
-55 l57 0 -57 51 c-107 95 -105 78 -18 148 l76 61 -56 0 c-52 0 -62 -4 -115
-45 -32 -25 -64 -45 -70 -45 -6 0 -37 20 -69 45 -51 40 -63 45 -110 45 -29 0
-50 -4 -47 -8z"/>
<path d="M1730 412 c0 -162 -15 -152 245 -152 260 0 245 -10 245 152 l0 108
-55 0 -54 0 -3 -102 -3 -103 -130 0 -130 0 -3 103 -3 102 -54 0 -55 0 0 -108z"/>
<path d="M2307 502 c-23 -26 -22 -94 1 -115 16 -14 43 -17 169 -17 122 0 153
-3 163 -15 10 -12 10 -18 0 -30 -10 -12 -44 -15 -186 -15 l-174 0 0 -25 0 -25
214 0 c201 0 215 1 240 21 33 26 37 88 6 119 -18 18 -33 20 -173 20 -157 0
-190 7 -166 37 9 10 53 13 185 13 l174 0 0 25 0 25 -218 0 c-199 0 -220 -2
-235 -18z"/>
</g>
</svg>
