<?xml version="1.0" encoding="UTF-8"?>
<!DOCTYPE svg PUBLIC "-//W3C//DTD SVG 1.1//EN" "http://www.w3.org/Graphics/SVG/1.1/DTD/svg11.dtd">
<svg xmlns="http://www.w3.org/2000/svg" version="1.1" width="400px" height="400px" style="shape-rendering:geometricPrecision; text-rendering:geometricPrecision; image-rendering:optimizeQuality; fill-rule:evenodd; clip-rule:evenodd" xmlns:xlink="http://www.w3.org/1999/xlink">
<g><path style="opacity:0.99" fill="#68198e" d="M 177.5,-0.5 C 178.167,-0.5 178.833,-0.5 179.5,-0.5C 120.751,59.7501 61.4173,119.583 1.5,179C 0.905578,179.464 0.238911,179.631 -0.5,179.5C -0.5,178.833 -0.5,178.167 -0.5,177.5C 11.3159,101.031 52.3159,46.5307 122.5,14C 140.348,6.80519 158.681,1.97186 177.5,-0.5 Z"/></g>
<g><path style="opacity:0.997" fill="#681c90" d="M 179.5,-0.5 C 193.5,-0.5 207.5,-0.5 221.5,-0.5C 222.919,0.451145 224.585,0.784479 226.5,0.5C 151.833,76.5 76.5,151.833 0.5,226.5C 0.784479,224.585 0.451145,222.919 -0.5,221.5C -0.5,207.5 -0.5,193.5 -0.5,179.5C 0.238911,179.631 0.905578,179.464 1.5,179C 61.4173,119.583 120.751,59.7501 179.5,-0.5 Z"/></g>
<g><path style="opacity:0.995" fill="#672293" d="M 226.5,0.5 C 237.877,2.09504 248.877,4.7617 259.5,8.5C 238.035,29.465 216.701,50.6317 195.5,72C 208.952,73.0912 222.285,73.9246 235.5,74.5C 211.5,74.5 187.5,74.5 163.5,74.5C 156.056,94.0557 148.056,113.389 139.5,132.5C 138.836,131.352 138.669,130.019 139,128.5C 95.2986,172.035 51.7986,215.701 8.5,259.5C 4.75835,248.864 2.09168,237.864 0.5,226.5C 76.5,151.833 151.833,76.5 226.5,0.5 Z"/></g>
<g><path style="opacity:0.993" fill="#662a98" d="M 259.5,8.5 C 273.551,12.527 286.885,18.1936 299.5,25.5C 280.553,45.7808 260.886,65.4475 240.5,84.5C 241.04,85.7481 241.707,86.9148 242.5,88C 242.272,88.3988 241.938,88.5654 241.5,88.5C 238.935,84.1565 236.935,79.4898 235.5,74.5C 222.285,73.9246 208.952,73.0912 195.5,72C 216.701,50.6317 238.035,29.465 259.5,8.5 Z"/></g>
<g><path style="opacity:0.995" fill="#65349e" d="M 299.5,25.5 C 305.337,28.9175 311.004,32.5842 316.5,36.5C 294.883,59.1177 272.883,81.4511 250.5,103.5C 249.912,105.012 249.578,106.345 249.5,107.5C 246.069,101.557 243.403,95.2238 241.5,88.5C 241.938,88.5654 242.272,88.3988 242.5,88C 241.707,86.9148 241.04,85.7481 240.5,84.5C 260.886,65.4475 280.553,45.7808 299.5,25.5 Z"/></g>
<g><path style="opacity:0.995" fill="#643ba3" d="M 316.5,36.5 C 320.817,39.4864 324.817,42.8197 328.5,46.5C 304.45,71.5506 279.783,95.884 254.5,119.5C 252.069,115.889 250.403,111.889 249.5,107.5C 249.578,106.345 249.912,105.012 250.5,103.5C 272.883,81.4511 294.883,59.1177 316.5,36.5 Z"/></g>
<g><path style="opacity:0.995" fill="#6341a6" d="M 328.5,46.5 C 332.791,49.1231 336.457,52.4564 339.5,56.5C 313.548,82.452 287.548,108.452 261.5,134.5C 262.04,135.748 262.707,136.915 263.5,138C 263.272,138.399 262.938,138.565 262.5,138.5C 259.069,132.557 256.403,126.224 254.5,119.5C 279.783,95.884 304.45,71.5506 328.5,46.5 Z"/></g>
<g><path style="opacity:0.996" fill="#6347a9" d="M 339.5,56.5 C 342.833,59.1667 345.833,62.1667 348.5,65.5C 321.868,92.632 295.035,119.632 268,146.5C 267.938,148.115 267.771,149.448 267.5,150.5C 265.069,146.889 263.403,142.889 262.5,138.5C 262.938,138.565 263.272,138.399 263.5,138C 262.707,136.915 262.04,135.748 261.5,134.5C 287.548,108.452 313.548,82.452 339.5,56.5 Z"/></g>
<g><path style="opacity:0.995" fill="#624dad" d="M 348.5,65.5 C 351.848,68.8514 354.848,72.5181 357.5,76.5C 329.884,105.784 301.55,134.45 272.5,162.5C 270.315,158.787 268.648,154.787 267.5,150.5C 267.771,149.448 267.938,148.115 268,146.5C 295.035,119.632 321.868,92.632 348.5,65.5 Z"/></g>
<g><path style="opacity:1" fill="#fdfdfe" d="M 235.5,74.5 C 236.935,79.4898 238.935,84.1565 241.5,88.5C 243.403,95.2238 246.069,101.557 249.5,107.5C 250.403,111.889 252.069,115.889 254.5,119.5C 256.403,126.224 259.069,132.557 262.5,138.5C 263.403,142.889 265.069,146.889 267.5,150.5C 268.648,154.787 270.315,158.787 272.5,162.5C 273.885,166.938 275.552,171.271 277.5,175.5C 280.03,181.091 282.363,186.758 284.5,192.5C 286.5,197.167 288.5,201.833 290.5,206.5C 290.992,208.819 291.992,210.819 293.5,212.5C 293.433,213.959 293.766,215.292 294.5,216.5C 294.5,217.167 294.167,217.5 293.5,217.5C 287.852,216.17 282.185,214.836 276.5,213.5C 264.99,209.865 253.324,206.865 241.5,204.5C 238.598,203.394 235.598,202.228 232.5,201C 231.438,197.953 230.105,195.12 228.5,192.5C 224.686,181.549 220.352,170.883 215.5,160.5C 210.754,146.93 205.421,133.596 199.5,120.5C 188.382,147.013 177.549,173.679 167,200.5C 159.37,202.776 151.87,205.109 144.5,207.5C 131.609,210.598 118.776,213.931 106,217.5C 105.235,217.43 104.735,217.097 104.5,216.5C 108.774,206.952 112.774,197.285 116.5,187.5C 124.44,169.286 132.107,150.953 139.5,132.5C 148.056,113.389 156.056,94.0557 163.5,74.5C 187.5,74.5 211.5,74.5 235.5,74.5 Z"/></g>
<g><path style="opacity:0.995" fill="#6154b1" d="M 357.5,76.5 C 360.888,79.5971 363.555,83.2637 365.5,87.5C 335.494,116.173 306.161,145.506 277.5,175.5C 275.552,171.271 273.885,166.938 272.5,162.5C 301.55,134.45 329.884,105.784 357.5,76.5 Z"/></g>
<g><path style="opacity:0.995" fill="#605ab5" d="M 365.5,87.5 C 368,90.4937 370,93.827 371.5,97.5C 341.885,126.447 312.219,155.447 282.5,184.5C 284.307,187.181 284.974,189.848 284.5,192.5C 282.363,186.758 280.03,181.091 277.5,175.5C 306.161,145.506 335.494,116.173 365.5,87.5 Z"/></g>
<g><path style="opacity:0.997" fill="#6060b8" d="M 371.5,97.5 C 373.653,99.7937 375.32,102.46 376.5,105.5C 347.397,136.104 317.73,166.271 287.5,196C 288.736,199.207 290.069,202.374 291.5,205.5C 291.376,206.107 291.043,206.44 290.5,206.5C 288.5,201.833 286.5,197.167 284.5,192.5C 284.974,189.848 284.307,187.181 282.5,184.5C 312.219,155.447 341.885,126.447 371.5,97.5 Z"/></g>
<g><path style="opacity:0.995" fill="#5f67bc" d="M 376.5,105.5 C 379.284,109.405 381.284,113.738 382.5,118.5C 352.535,147.965 322.701,177.632 293,207.5C 292.735,209.163 293.235,210.663 294.5,212C 294.272,212.399 293.938,212.565 293.5,212.5C 291.992,210.819 290.992,208.819 290.5,206.5C 291.043,206.44 291.376,206.107 291.5,205.5C 290.069,202.374 288.736,199.207 287.5,196C 317.73,166.271 347.397,136.104 376.5,105.5 Z"/></g>
<g><path style="opacity:0.995" fill="#5e6dc0" d="M 382.5,118.5 C 384.592,121.088 385.925,124.088 386.5,127.5C 356.535,157.965 326.368,188.299 296,218.5C 295.722,217.584 295.222,216.918 294.5,216.5C 293.766,215.292 293.433,213.959 293.5,212.5C 293.938,212.565 294.272,212.399 294.5,212C 293.235,210.663 292.735,209.163 293,207.5C 322.701,177.632 352.535,147.965 382.5,118.5 Z"/></g>
<g><path style="opacity:0.996" fill="#5e73c3" d="M 386.5,127.5 C 388.204,130.939 389.538,134.605 390.5,138.5C 352.854,175.479 315.521,212.812 278.5,250.5C 277.675,251.386 276.675,251.719 275.5,251.5C 270.327,250.406 265.327,249.072 260.5,247.5C 262.857,247.663 265.19,247.497 267.5,247C 276.864,237.97 285.864,228.637 294.5,219C 293.944,218.617 293.611,218.117 293.5,217.5C 294.167,217.5 294.5,217.167 294.5,216.5C 295.222,216.918 295.722,217.584 296,218.5C 326.368,188.299 356.535,157.965 386.5,127.5 Z"/></g>
<g><path style="opacity:0.996" fill="#662897" d="M 139.5,132.5 C 132.107,150.953 124.44,169.286 116.5,187.5C 115.836,186.352 115.669,185.019 116,183.5C 82.9652,216.368 50.1319,249.368 17.5,282.5C 13.1491,275.449 10.1491,267.782 8.5,259.5C 51.7986,215.701 95.2986,172.035 139,128.5C 138.669,130.019 138.836,131.352 139.5,132.5 Z"/></g>
<g><path style="opacity:0.995" fill="#5d7ac7" d="M 390.5,138.5 C 391.807,141.725 392.807,145.059 393.5,148.5C 357.452,183.881 322.119,219.215 287.5,254.5C 283.239,254.102 279.239,253.102 275.5,251.5C 276.675,251.719 277.675,251.386 278.5,250.5C 315.521,212.812 352.854,175.479 390.5,138.5 Z"/></g>
<g><path style="opacity:0.996" fill="#5c7fcb" d="M 393.5,148.5 C 394.5,152.5 395.5,156.5 396.5,160.5C 317.5,238.833 238.833,317.5 160.5,396.5C 156.479,395.497 152.479,394.497 148.5,393.5C 192.812,348.854 237.146,304.188 281.5,259.5C 280.311,258.571 278.978,258.238 277.5,258.5C 280.95,257.47 284.283,256.137 287.5,254.5C 322.119,219.215 357.452,183.881 393.5,148.5 Z"/></g>
<g><path style="opacity:1" fill="#643aa2" d="M 215.5,160.5 C 186.394,189.104 157.061,218.27 127.5,248C 130.028,247.895 132.362,248.062 134.5,248.5C 126.812,250.506 119.145,252.673 111.5,255C 113.287,256.319 115.287,257.152 117.5,257.5C 94.1937,281.473 70.527,305.14 46.5,328.5C 42.8197,324.817 39.4864,320.817 36.5,316.5C 72.7847,281.216 108.785,245.549 144.5,209.5C 148.339,208.279 148.339,207.612 144.5,207.5C 151.87,205.109 159.37,202.776 167,200.5C 177.549,173.679 188.382,147.013 199.5,120.5C 205.421,133.596 210.754,146.93 215.5,160.5 Z"/></g>
<g><path style="opacity:1" fill="#6342a6" d="M 215.5,160.5 C 220.352,170.883 224.686,181.549 228.5,192.5C 228.565,192.938 228.399,193.272 228,193.5C 227.5,192.5 227,191.5 226.5,190.5C 225.998,189.479 225.332,189.312 224.5,190C 220,194.5 215.5,199 211,203.5C 211.696,209.919 213.863,215.919 217.5,221.5C 217.376,222.107 217.043,222.44 216.5,222.5C 210.843,210.517 205.176,198.517 199.5,186.5C 191.778,203.612 183.778,220.612 175.5,237.5C 161.874,241.323 148.207,244.99 134.5,248.5C 132.362,248.062 130.028,247.895 127.5,248C 157.061,218.27 186.394,189.104 215.5,160.5 Z"/></g>
<g><path style="opacity:0.996" fill="#5b86cf" d="M 396.5,160.5 C 396.984,164.232 397.651,167.899 398.5,171.5C 322.5,246.833 246.833,322.5 171.5,398.5C 167.888,397.578 164.221,396.911 160.5,396.5C 238.833,317.5 317.5,238.833 396.5,160.5 Z"/></g>
<g><path style="opacity:0.994" fill="#5b8cd2" d="M 398.5,171.5 C 398.205,173.735 398.539,175.735 399.5,177.5C 399.5,179.167 399.5,180.833 399.5,182.5C 326.833,254.5 254.5,326.833 182.5,399.5C 180.833,399.5 179.167,399.5 177.5,399.5C 175.735,398.539 173.735,398.205 171.5,398.5C 246.833,322.5 322.5,246.833 398.5,171.5 Z"/></g>
<g><path style="opacity:0.998" fill="#5a92d6" d="M 399.5,182.5 C 399.5,186.5 399.5,190.5 399.5,194.5C 330.833,262.5 262.5,330.833 194.5,399.5C 190.5,399.5 186.5,399.5 182.5,399.5C 254.5,326.833 326.833,254.5 399.5,182.5 Z"/></g>
<g><path style="opacity:0.995" fill="#662e9b" d="M 116.5,187.5 C 112.774,197.285 108.774,206.952 104.5,216.5C 103.957,216.56 103.624,216.893 103.5,217.5C 104.376,218.251 105.376,218.751 106.5,219C 79.6311,246.035 52.9644,273.202 26.5,300.5C 22.4596,295.086 19.4596,289.086 17.5,282.5C 50.1319,249.368 82.9652,216.368 116,183.5C 115.669,185.019 115.836,186.352 116.5,187.5 Z"/></g>
<g><path style="opacity:1" fill="#fdfcfe" d="M 216.5,222.5 C 218.226,226.953 220.226,231.286 222.5,235.5C 222.414,236.496 222.748,237.329 223.5,238C 229.532,239.508 235.532,241.008 241.5,242.5C 247.63,244.532 253.963,246.199 260.5,247.5C 265.327,249.072 270.327,250.406 275.5,251.5C 279.239,253.102 283.239,254.102 287.5,254.5C 284.283,256.137 280.95,257.47 277.5,258.5C 272.371,259.697 267.371,261.031 262.5,262.5C 249.834,265.601 237.167,268.767 224.5,272C 216.125,288.442 208.125,305.109 200.5,322C 200.167,322.5 199.833,323 199.5,323.5C 198.396,320.95 197.063,318.617 195.5,316.5C 193.73,311.167 191.397,306.167 188.5,301.5C 187.397,297.503 185.731,293.836 183.5,290.5C 181.87,285.919 179.87,281.586 177.5,277.5C 177.16,275.321 176.16,273.488 174.5,272C 171.568,271.047 168.568,270.547 165.5,270.5C 161.296,269.028 156.963,267.695 152.5,266.5C 146.131,264.96 139.798,263.293 133.5,261.5C 128.167,260.167 122.834,258.834 117.5,257.5C 115.287,257.152 113.287,256.319 111.5,255C 119.145,252.673 126.812,250.506 134.5,248.5C 148.207,244.99 161.874,241.323 175.5,237.5C 183.778,220.612 191.778,203.612 199.5,186.5C 205.176,198.517 210.843,210.517 216.5,222.5 Z"/></g>
<g><path style="opacity:1" fill="#6152b0" d="M 228.5,192.5 C 230.105,195.12 231.438,197.953 232.5,201C 235.598,202.228 238.598,203.394 241.5,204.5C 241.96,205.541 243.293,206.375 245.5,207C 237.348,214.652 229.348,222.485 221.5,230.5C 222.167,231.833 222.833,233.167 223.5,234.5C 223.376,235.107 223.043,235.44 222.5,235.5C 220.226,231.286 218.226,226.953 216.5,222.5C 217.043,222.44 217.376,222.107 217.5,221.5C 213.863,215.919 211.696,209.919 211,203.5C 215.5,199 220,194.5 224.5,190C 225.332,189.312 225.998,189.479 226.5,190.5C 227,191.5 227.5,192.5 228,193.5C 228.399,193.272 228.565,192.938 228.5,192.5 Z"/></g>
<g><path style="opacity:0.999" fill="#5999da" d="M 399.5,194.5 C 399.5,198.833 399.5,203.167 399.5,207.5C 335.167,271.167 271.167,335.167 207.5,399.5C 203.167,399.5 198.833,399.5 194.5,399.5C 262.5,330.833 330.833,262.5 399.5,194.5 Z"/></g>
<g><path style="opacity:0.995" fill="#589fdd" d="M 399.5,207.5 C 399.5,211.5 399.5,215.5 399.5,219.5C 339.25,278.249 279.417,337.583 220,397.5C 219.536,398.094 219.369,398.761 219.5,399.5C 215.5,399.5 211.5,399.5 207.5,399.5C 271.167,335.167 335.167,271.167 399.5,207.5 Z"/></g>
<g><path style="opacity:0.997" fill="#65359f" d="M 144.5,207.5 C 148.339,207.612 148.339,208.279 144.5,209.5C 108.785,245.549 72.7847,281.216 36.5,316.5C 32.7709,311.433 29.4376,306.099 26.5,300.5C 52.9644,273.202 79.6311,246.035 106.5,219C 105.376,218.751 104.376,218.251 103.5,217.5C 103.624,216.893 103.957,216.56 104.5,216.5C 104.735,217.097 105.235,217.43 106,217.5C 118.776,213.931 131.609,210.598 144.5,207.5 Z"/></g>
<g><path style="opacity:1" fill="#605eb7" d="M 241.5,204.5 C 253.324,206.865 264.99,209.865 276.5,213.5C 275.391,214.29 274.058,214.79 272.5,215C 263.5,224 254.5,233 245.5,242C 244.207,242.49 242.873,242.657 241.5,242.5C 235.532,241.008 229.532,239.508 223.5,238C 222.748,237.329 222.414,236.496 222.5,235.5C 223.043,235.44 223.376,235.107 223.5,234.5C 222.833,233.167 222.167,231.833 221.5,230.5C 229.348,222.485 237.348,214.652 245.5,207C 243.293,206.375 241.96,205.541 241.5,204.5 Z"/></g>
<g><path style="opacity:1" fill="#5e6bbf" d="M 276.5,213.5 C 282.185,214.836 287.852,216.17 293.5,217.5C 293.611,218.117 293.944,218.617 294.5,219C 285.864,228.637 276.864,237.97 267.5,247C 265.19,247.497 262.857,247.663 260.5,247.5C 253.963,246.199 247.63,244.532 241.5,242.5C 242.873,242.657 244.207,242.49 245.5,242C 254.5,233 263.5,224 272.5,215C 274.058,214.79 275.391,214.29 276.5,213.5 Z"/></g>
<g><path style="opacity:0.993" fill="#58a5e1" d="M 399.5,219.5 C 399.5,220.167 399.5,220.833 399.5,221.5C 398.566,224.656 397.899,227.989 397.5,231.5C 341.833,286.5 286.5,341.833 231.5,397.5C 228.017,398.01 224.684,398.677 221.5,399.5C 220.833,399.5 220.167,399.5 219.5,399.5C 219.369,398.761 219.536,398.094 220,397.5C 279.417,337.583 339.25,278.249 399.5,219.5 Z"/></g>
<g><path style="opacity:0.991" fill="#57ace5" d="M 397.5,231.5 C 396.791,237.665 395.458,243.665 393.5,249.5C 345.167,297.167 297.167,345.167 249.5,393.5C 243.75,395.434 237.75,396.768 231.5,397.5C 286.5,341.833 341.833,286.5 397.5,231.5 Z"/></g>
<g><path style="opacity:0.995" fill="#6341a6" d="M 117.5,257.5 C 122.834,258.834 128.167,260.167 133.5,261.5C 108.184,287.816 82.5177,313.816 56.5,339.5C 52.4564,336.457 49.1231,332.791 46.5,328.5C 70.527,305.14 94.1937,281.473 117.5,257.5 Z"/></g>
<g><path style="opacity:0.996" fill="#5d79c7" d="M 277.5,258.5 C 278.978,258.238 280.311,258.571 281.5,259.5C 237.146,304.188 192.812,348.854 148.5,393.5C 145.059,392.807 141.725,391.807 138.5,390.5C 180.132,348.368 221.965,306.368 264,264.5C 264.528,263.184 264.028,262.517 262.5,262.5C 267.371,261.031 272.371,259.697 277.5,258.5 Z"/></g>
<g><path style="opacity:0.996" fill="#5e72c3" d="M 262.5,262.5 C 264.028,262.517 264.528,263.184 264,264.5C 221.965,306.368 180.132,348.368 138.5,390.5C 134.605,389.538 130.939,388.204 127.5,386.5C 149.799,364.702 171.965,342.702 194,320.5C 194.483,319.552 194.649,318.552 194.5,317.5C 195.167,317.5 195.5,317.167 195.5,316.5C 197.063,318.617 198.396,320.95 199.5,323.5C 199.833,323 200.167,322.5 200.5,322C 208.125,305.109 216.125,288.442 224.5,272C 237.167,268.767 249.834,265.601 262.5,262.5 Z"/></g>
<g><path style="opacity:0.985" fill="#56b5ea" d="M 393.5,249.5 C 391.471,258.921 388.471,267.921 384.5,276.5C 348.167,312.167 312.167,348.167 276.5,384.5C 267.921,388.471 258.921,391.471 249.5,393.5C 297.167,345.167 345.167,297.167 393.5,249.5 Z"/></g>
<g><path style="opacity:0.995" fill="#6347a9" d="M 133.5,261.5 C 139.798,263.293 146.131,264.96 152.5,266.5C 150.708,267.309 148.708,267.809 146.5,268C 119.248,294.751 92.581,321.917 66.5,349.5C 62.8333,346.5 59.5,343.167 56.5,339.5C 82.5177,313.816 108.184,287.816 133.5,261.5 Z"/></g>
<g><path style="opacity:0.996" fill="#624dad" d="M 152.5,266.5 C 156.963,267.695 161.296,269.028 165.5,270.5C 135.833,299.5 106.5,328.833 77.5,358.5C 73.5181,355.848 69.8514,352.848 66.5,349.5C 92.581,321.917 119.248,294.751 146.5,268C 148.708,267.809 150.708,267.309 152.5,266.5 Z"/></g>
<g><path style="opacity:0.996" fill="#6154b1" d="M 165.5,270.5 C 168.568,270.547 171.568,271.047 174.5,272C 176.16,273.488 177.16,275.321 177.5,277.5C 176.345,277.578 175.012,277.912 173.5,278.5C 144.43,307.236 115.763,336.236 87.5,365.5C 83.7792,363.646 80.4459,361.313 77.5,358.5C 106.5,328.833 135.833,299.5 165.5,270.5 Z"/></g>
<g><path style="opacity:0.971" fill="#54bff0" d="M 384.5,276.5 C 362.833,326.833 326.833,362.833 276.5,384.5C 312.167,348.167 348.167,312.167 384.5,276.5 Z"/></g>
<g><path style="opacity:0.995" fill="#605bb5" d="M 177.5,277.5 C 179.87,281.586 181.87,285.919 183.5,290.5C 183.19,291.738 182.69,291.738 182,290.5C 181.177,286.085 180.01,285.752 178.5,289.5C 151.096,316.57 124.096,343.903 97.5,371.5C 93.827,370 90.4937,368 87.5,365.5C 115.763,336.236 144.43,307.236 173.5,278.5C 175.012,277.912 176.345,277.578 177.5,277.5 Z"/></g>
<g><path style="opacity:0.996" fill="#6060b8" d="M 183.5,290.5 C 185.731,293.836 187.397,297.503 188.5,301.5C 187.03,300.775 185.864,299.109 185,296.5C 184.667,297.5 184.333,298.5 184,299.5C 157.965,325.368 132.132,351.368 106.5,377.5C 103.291,375.735 100.291,373.735 97.5,371.5C 124.096,343.903 151.096,316.57 178.5,289.5C 180.01,285.752 181.177,286.085 182,290.5C 182.69,291.738 183.19,291.738 183.5,290.5 Z"/></g>
<g><path style="opacity:0.994" fill="#5f67bc" d="M 188.5,301.5 C 191.397,306.167 193.73,311.167 195.5,316.5C 195.5,317.167 195.167,317.5 194.5,317.5C 193.623,314.742 192.456,312.076 191,309.5C 166.632,333.701 142.465,358.035 118.5,382.5C 114.266,381.383 110.266,379.716 106.5,377.5C 132.132,351.368 157.965,325.368 184,299.5C 184.333,298.5 184.667,297.5 185,296.5C 185.864,299.109 187.03,300.775 188.5,301.5 Z"/></g>
<g><path style="opacity:0.994" fill="#5e6dc0" d="M 194.5,317.5 C 194.649,318.552 194.483,319.552 194,320.5C 171.965,342.702 149.799,364.702 127.5,386.5C 124.088,385.925 121.088,384.592 118.5,382.5C 142.465,358.035 166.632,333.701 191,309.5C 192.456,312.076 193.623,314.742 194.5,317.5 Z"/></g>
</svg>
